<svg role="img" aria-label="Shakeshack" width="44" height="48" viewBox="0 0 44 48" fill="none" xmlns="http://www.w3.org/2000/svg">
<path d="M39.5957 38.0645C41.6312 38.0645 43.7492 39.3454 43.8623 41.7939C43.9251 43.1737 43.7218 45.1112 42.3955 46.501C41.445 47.4954 40.1196 48 38.4551 48H5.57617C3.91174 48 2.58522 47.4966 1.63477 46.501C0.310892 45.1124 0.107341 43.1747 0.168945 41.7949C0.2796 39.3453 2.39993 38.0646 4.43652 38.0645H39.5957ZM4.43652 40.582C4.36738 40.582 2.73882 40.5958 2.67969 41.9062C2.647 42.6363 2.70397 43.9755 3.45312 44.7598C3.91578 45.2457 4.61091 45.4814 5.5752 45.4814H38.4551C39.4191 45.4814 40.1143 45.2456 40.5781 44.7598L40.7109 44.6064C41.3342 43.8095 41.3814 42.5907 41.3496 41.9062C41.2892 40.5958 39.6626 40.582 39.5947 40.582H4.43652ZM40.2031 28.0889C42.1075 28.0891 43.657 29.6397 43.6572 31.5479V32.1133C43.6572 34.0216 42.1077 35.5731 40.2031 35.5732H3.45508C1.5491 35.5732 0 34.0218 0 32.1133V31.5479C0.000234924 29.6396 1.54925 28.0889 3.45508 28.0889H40.2031ZM3.45508 30.6064C2.93709 30.6064 2.51465 31.0292 2.51465 31.5479V32.1133C2.51489 32.6317 2.93724 33.0547 3.45508 33.0547H40.2031C40.7208 33.0545 41.1433 32.6316 41.1436 32.1133V31.5479C41.1436 31.0293 40.721 30.6066 40.2031 30.6064H3.45508ZM37.542 20.835C39.3876 20.835 40.3483 21.8938 41.0498 22.668C41.6846 23.3665 41.9943 23.6758 42.6982 23.6758C43.3933 23.6759 43.955 24.2398 43.9551 24.9346C43.9551 25.6307 43.3934 26.1932 42.6982 26.1934C40.8526 26.1934 39.8923 25.1333 39.1895 24.3604C38.5558 23.6617 38.2448 23.3525 37.542 23.3525C36.8394 23.3526 36.5301 23.662 35.8955 24.3604C35.1927 25.1333 34.2331 26.1932 32.3877 26.1934C30.5433 26.1934 29.5821 25.1336 28.8818 24.3594C28.2484 23.6609 27.9393 23.3526 27.2393 23.3525C26.539 23.3525 26.2291 23.6607 25.5967 24.3594C24.8964 25.1336 23.9358 26.1934 22.0928 26.1934C20.2499 26.1932 19.2894 25.1335 18.5879 24.3594C17.9555 23.6607 17.6472 23.3525 16.9482 23.3525C16.2482 23.3526 15.9391 23.6609 15.3057 24.3594C14.6054 25.1335 13.6459 26.1932 11.8018 26.1934C9.95753 26.1934 8.99686 25.1336 8.29785 24.3594C7.66423 23.6607 7.35451 23.3526 6.6543 23.3525C5.95401 23.3525 5.64439 23.6607 5.01074 24.3594C4.31172 25.1336 3.35114 26.1934 1.50684 26.1934C0.812941 26.1932 0.25 25.6307 0.25 24.9346C0.2501 24.2398 0.813003 23.6759 1.50684 23.6758C2.20711 23.6758 2.51677 23.3676 3.15039 22.6689C3.85067 21.8947 4.80992 20.835 6.6543 20.835C8.49861 20.835 9.45919 21.8947 10.1582 22.6689C10.7918 23.3675 11.1015 23.6758 11.8018 23.6758C12.5005 23.6757 12.8111 23.3674 13.4434 22.6689C14.1436 21.8948 15.104 20.8351 16.9482 20.835C18.7901 20.835 19.7506 21.8947 20.4521 22.6689C21.0844 23.3675 21.394 23.6757 22.0928 23.6758C22.793 23.6758 23.1012 23.3674 23.7334 22.6689C24.4349 21.8947 25.3949 20.835 27.2393 20.835C29.0835 20.8351 30.0429 21.8948 30.7432 22.6689C31.3767 23.3662 31.6862 23.6758 32.3877 23.6758C33.089 23.6757 33.3998 23.3664 34.0332 22.668C34.736 21.895 35.6977 20.835 37.542 20.835ZM22.1279 0C30.6116 0 35.8193 2.81846 38.6934 5.18262C42.6059 8.40031 44 12.1469 44 14.5791C44 17.1158 42.518 18.8193 40.3115 18.8193H3.94434C1.73804 18.8192 0.256836 17.1156 0.256836 14.5791C0.256854 12.1469 1.65 8.4003 5.5625 5.18262C8.43779 2.81845 13.6442 3.75987e-05 22.1279 0ZM22.1309 2.51758C14.3913 2.51758 9.71935 5.0256 7.16211 7.12793C3.92348 9.79297 2.77443 12.8078 2.77441 14.5791C2.77441 15.7222 3.16903 16.3018 3.94727 16.3018H40.3145C41.0925 16.3016 41.4883 15.722 41.4883 14.5791C41.4883 12.8079 40.3393 9.79293 37.0996 7.12793C34.5424 5.02561 29.8703 2.51762 22.1309 2.51758Z" fill="#418613"/>
</svg>
